<svg width="205" height="57" viewBox="0 0 205 57" fill="none" xmlns="http://www.w3.org/2000/svg">
<path d="M62.098 39L52.68 15.098H57.678L64.954 34.444H63.016L70.36 15.098H75.29L65.77 39H62.098ZM83.3074 39V15.608H87.9654V39H83.3074ZM75.6914 19.212V15.098H95.5814V19.212H75.6914ZM102.174 29.004V25.4H107.716C108.85 25.4 109.722 25.1167 110.334 24.55C110.969 23.9607 111.286 23.156 111.286 22.136C111.286 21.2067 110.969 20.436 110.334 19.824C109.722 19.1893 108.85 18.872 107.716 18.872H102.174V15.098H108.124C109.666 15.098 111.014 15.404 112.17 16.016C113.349 16.6053 114.256 17.4213 114.89 18.464C115.548 19.5067 115.876 20.708 115.876 22.068C115.876 23.4733 115.548 24.6973 114.89 25.74C114.256 26.76 113.349 27.5647 112.17 28.154C110.992 28.7207 109.62 29.004 108.056 29.004H102.174ZM98.7742 39V15.098H103.398V39H98.7742ZM111.83 39L103.942 28.664L108.192 27.338L117.44 39H111.83ZM120.057 39V15.098H124.681V39H120.057ZM123.457 39V34.92H136.683V39H123.457ZM123.457 28.766V24.822H135.493V28.766H123.457ZM123.457 19.178V15.098H136.513V19.178H123.457ZM138.743 39L148.365 15.098H152.139L161.727 39H156.796L149.385 19.382H151.085L143.571 39H138.743ZM143.843 34.546V30.67H156.695V34.546H143.843ZM167.61 39V15.608H172.268V39H167.61ZM159.994 19.212V15.098H179.884V19.212H159.994ZM192.262 39.34C190.381 39.34 188.704 38.932 187.23 38.116C185.78 37.2773 184.635 36.1327 183.796 34.682C182.958 33.2313 182.538 31.588 182.538 29.752V15.098H187.162V29.888C187.162 30.9533 187.378 31.8713 187.808 32.642C188.262 33.4127 188.874 34.0133 189.644 34.444C190.438 34.852 191.31 35.056 192.262 35.056C193.237 35.056 194.098 34.852 194.846 34.444C195.594 34.0133 196.184 33.4127 196.614 32.642C197.068 31.8713 197.294 30.9647 197.294 29.922V15.098H201.952V29.786C201.952 31.622 201.533 33.2653 200.694 34.716C199.856 36.144 198.711 37.2773 197.26 38.116C195.832 38.932 194.166 39.34 192.262 39.34Z" fill="#303EFF"/>
<path d="M3.50302e-05 25.0353L18.4604 25.0353M18.4658 25.5396V43.9999M18.9647 0L18.9647 18.4604M18.4604 18.4657L0 18.4657M44.9978 25.0353L26.5374 25.0353M26.5321 25.5396V43.9999M26.0331 0L26.0331 18.4604M26.5374 18.4657L44.9978 18.4657" stroke="#303EFF" stroke-width="5"/>
<path d="M58.116 56.676V55.224H60.264C60.808 55.224 61.284 55.112 61.692 54.888C62.1 54.656 62.416 54.332 62.64 53.916C62.872 53.5 62.988 53.008 62.988 52.44C62.988 51.888 62.872 51.408 62.64 51C62.408 50.584 62.088 50.264 61.68 50.04C61.272 49.808 60.8 49.692 60.264 49.692H58.08V48.24H60.288C60.912 48.24 61.488 48.344 62.016 48.552C62.552 48.76 63.016 49.056 63.408 49.44C63.808 49.816 64.116 50.26 64.332 50.772C64.556 51.284 64.668 51.844 64.668 52.452C64.668 53.06 64.556 53.624 64.332 54.144C64.116 54.656 63.812 55.104 63.42 55.488C63.028 55.864 62.564 56.156 62.028 56.364C61.5 56.572 60.928 56.676 60.312 56.676H58.116ZM57 56.676V48.24H58.632V56.676H57ZM68.2208 56.796C67.6928 56.796 67.2168 56.664 66.7928 56.4C66.3688 56.136 66.0368 55.776 65.7968 55.32C65.5568 54.864 65.4368 54.352 65.4368 53.784C65.4368 53.208 65.5568 52.692 65.7968 52.236C66.0368 51.78 66.3688 51.42 66.7928 51.156C67.2168 50.892 67.6928 50.76 68.2208 50.76C68.6368 50.76 69.0088 50.844 69.3368 51.012C69.6648 51.18 69.9248 51.416 70.1168 51.72C70.3168 52.016 70.4248 52.352 70.4408 52.728V54.816C70.4248 55.2 70.3168 55.54 70.1168 55.836C69.9248 56.132 69.6648 56.368 69.3368 56.544C69.0088 56.712 68.6368 56.796 68.2208 56.796ZM68.5088 55.344C68.9488 55.344 69.3048 55.2 69.5768 54.912C69.8488 54.616 69.9848 54.236 69.9848 53.772C69.9848 53.468 69.9208 53.2 69.7928 52.968C69.6728 52.728 69.5008 52.544 69.2768 52.416C69.0608 52.28 68.8048 52.212 68.5088 52.212C68.2208 52.212 67.9648 52.28 67.7408 52.416C67.5248 52.544 67.3528 52.728 67.2248 52.968C67.1048 53.2 67.0448 53.468 67.0448 53.772C67.0448 54.084 67.1048 54.36 67.2248 54.6C67.3528 54.832 67.5248 55.016 67.7408 55.152C67.9648 55.28 68.2208 55.344 68.5088 55.344ZM69.9008 56.676V55.116L70.1528 53.7L69.9008 52.308V50.88H71.4608V56.676H69.9008ZM74.8435 56.808C74.5155 56.808 74.1915 56.764 73.8715 56.676C73.5595 56.588 73.2715 56.468 73.0075 56.316C72.7435 56.156 72.5155 55.964 72.3235 55.74L73.2595 54.792C73.4595 55.016 73.6915 55.184 73.9555 55.296C74.2195 55.408 74.5115 55.464 74.8315 55.464C75.0875 55.464 75.2795 55.428 75.4075 55.356C75.5435 55.284 75.6115 55.176 75.6115 55.032C75.6115 54.872 75.5395 54.748 75.3955 54.66C75.2595 54.572 75.0795 54.5 74.8555 54.444C74.6315 54.38 74.3955 54.312 74.1475 54.24C73.9075 54.16 73.6755 54.06 73.4515 53.94C73.2275 53.812 73.0435 53.64 72.8995 53.424C72.7635 53.2 72.6955 52.912 72.6955 52.56C72.6955 52.192 72.7835 51.872 72.9595 51.6C73.1435 51.328 73.4035 51.116 73.7395 50.964C74.0755 50.812 74.4715 50.736 74.9275 50.736C75.4075 50.736 75.8395 50.82 76.2235 50.988C76.6155 51.156 76.9395 51.408 77.1955 51.744L76.2475 52.692C76.0715 52.476 75.8715 52.32 75.6475 52.224C75.4315 52.128 75.1955 52.08 74.9395 52.08C74.7075 52.08 74.5275 52.116 74.3995 52.188C74.2795 52.26 74.2195 52.36 74.2195 52.488C74.2195 52.632 74.2875 52.744 74.4235 52.824C74.5675 52.904 74.7515 52.976 74.9755 53.04C75.1995 53.096 75.4315 53.164 75.6715 53.244C75.9195 53.316 76.1515 53.42 76.3675 53.556C76.5915 53.692 76.7715 53.872 76.9075 54.096C77.0515 54.32 77.1235 54.608 77.1235 54.96C77.1235 55.528 76.9195 55.98 76.5115 56.316C76.1035 56.644 75.5475 56.808 74.8435 56.808ZM82.0836 56.676V53.352C82.0836 53.008 81.9756 52.728 81.7596 52.512C81.5436 52.296 81.2636 52.188 80.9196 52.188C80.6956 52.188 80.4956 52.236 80.3196 52.332C80.1436 52.428 80.0036 52.564 79.8996 52.74C79.8036 52.916 79.7556 53.12 79.7556 53.352L79.1436 53.04C79.1436 52.584 79.2396 52.188 79.4316 51.852C79.6236 51.508 79.8876 51.24 80.2236 51.048C80.5676 50.856 80.9596 50.76 81.3996 50.76C81.8396 50.76 82.2276 50.856 82.5636 51.048C82.9076 51.24 83.1756 51.504 83.3676 51.84C83.5596 52.176 83.6556 52.564 83.6556 53.004V56.676H82.0836ZM78.1836 56.676V48H79.7556V56.676H78.1836ZM88.1378 56.796C87.7218 56.796 87.3458 56.708 87.0098 56.532C86.6738 56.356 86.4058 56.116 86.2058 55.812C86.0058 55.508 85.8978 55.168 85.8818 54.792V52.728C85.8978 52.352 86.0058 52.016 86.2058 51.72C86.4138 51.416 86.6858 51.18 87.0218 51.012C87.3578 50.844 87.7298 50.76 88.1378 50.76C88.6738 50.76 89.1538 50.892 89.5778 51.156C90.0018 51.42 90.3338 51.78 90.5738 52.236C90.8218 52.692 90.9458 53.208 90.9458 53.784C90.9458 54.352 90.8218 54.864 90.5738 55.32C90.3338 55.776 90.0018 56.136 89.5778 56.4C89.1538 56.664 88.6738 56.796 88.1378 56.796ZM87.8738 55.344C88.1618 55.344 88.4138 55.28 88.6298 55.152C88.8538 55.016 89.0258 54.832 89.1458 54.6C89.2738 54.36 89.3378 54.084 89.3378 53.772C89.3378 53.468 89.2738 53.2 89.1458 52.968C89.0258 52.728 88.8538 52.544 88.6298 52.416C88.4058 52.28 88.1498 52.212 87.8618 52.212C87.5738 52.212 87.3178 52.28 87.0938 52.416C86.8778 52.544 86.7058 52.728 86.5778 52.968C86.4578 53.2 86.3978 53.468 86.3978 53.772C86.3978 54.084 86.4578 54.36 86.5778 54.6C86.7058 54.832 86.8818 55.016 87.1058 55.152C87.3298 55.28 87.5858 55.344 87.8738 55.344ZM84.9218 56.676V48H86.4938V52.308L86.2298 53.7L86.4818 55.116V56.676H84.9218ZM94.7005 56.796C94.1165 56.796 93.5885 56.664 93.1165 56.4C92.6525 56.128 92.2805 55.764 92.0005 55.308C91.7285 54.844 91.5925 54.328 91.5925 53.76C91.5925 53.192 91.7285 52.684 92.0005 52.236C92.2725 51.78 92.6445 51.42 93.1165 51.156C93.5885 50.884 94.1125 50.748 94.6885 50.748C95.2805 50.748 95.8085 50.884 96.2725 51.156C96.7445 51.42 97.1165 51.78 97.3885 52.236C97.6605 52.684 97.7965 53.192 97.7965 53.76C97.7965 54.328 97.6605 54.844 97.3885 55.308C97.1165 55.764 96.7445 56.128 96.2725 56.4C95.8085 56.664 95.2845 56.796 94.7005 56.796ZM94.6885 55.332C94.9845 55.332 95.2445 55.268 95.4685 55.14C95.7005 55.004 95.8765 54.82 95.9965 54.588C96.1245 54.348 96.1885 54.076 96.1885 53.772C96.1885 53.468 96.1245 53.2 95.9965 52.968C95.8685 52.736 95.6925 52.556 95.4685 52.428C95.2445 52.292 94.9845 52.224 94.6885 52.224C94.4005 52.224 94.1445 52.292 93.9205 52.428C93.6965 52.556 93.5205 52.736 93.3925 52.968C93.2645 53.2 93.2005 53.468 93.2005 53.772C93.2005 54.076 93.2645 54.348 93.3925 54.588C93.5205 54.82 93.6965 55.004 93.9205 55.14C94.1445 55.268 94.4005 55.332 94.6885 55.332ZM101.233 56.796C100.705 56.796 100.229 56.664 99.805 56.4C99.381 56.136 99.049 55.776 98.809 55.32C98.569 54.864 98.449 54.352 98.449 53.784C98.449 53.208 98.569 52.692 98.809 52.236C99.049 51.78 99.381 51.42 99.805 51.156C100.229 50.892 100.705 50.76 101.233 50.76C101.649 50.76 102.021 50.844 102.349 51.012C102.677 51.18 102.937 51.416 103.129 51.72C103.329 52.016 103.437 52.352 103.453 52.728V54.816C103.437 55.2 103.329 55.54 103.129 55.836C102.937 56.132 102.677 56.368 102.349 56.544C102.021 56.712 101.649 56.796 101.233 56.796ZM101.521 55.344C101.961 55.344 102.317 55.2 102.589 54.912C102.861 54.616 102.997 54.236 102.997 53.772C102.997 53.468 102.933 53.2 102.805 52.968C102.685 52.728 102.513 52.544 102.289 52.416C102.073 52.28 101.817 52.212 101.521 52.212C101.233 52.212 100.977 52.28 100.753 52.416C100.537 52.544 100.365 52.728 100.237 52.968C100.117 53.2 100.057 53.468 100.057 53.772C100.057 54.084 100.117 54.36 100.237 54.6C100.365 54.832 100.537 55.016 100.753 55.152C100.977 55.28 101.233 55.344 101.521 55.344ZM102.913 56.676V55.116L103.165 53.7L102.913 52.308V50.88H104.473V56.676H102.913ZM105.863 56.676V50.88H107.435V56.676H105.863ZM107.435 53.472L106.823 53.064C106.895 52.352 107.103 51.792 107.447 51.384C107.791 50.968 108.287 50.76 108.935 50.76C109.215 50.76 109.467 50.808 109.691 50.904C109.915 50.992 110.119 51.14 110.303 51.348L109.319 52.476C109.231 52.38 109.123 52.308 108.995 52.26C108.875 52.212 108.735 52.188 108.575 52.188C108.239 52.188 107.963 52.296 107.747 52.512C107.539 52.72 107.435 53.04 107.435 53.472ZM113.139 56.796C112.603 56.796 112.123 56.664 111.699 56.4C111.275 56.136 110.939 55.776 110.691 55.32C110.451 54.864 110.331 54.352 110.331 53.784C110.331 53.208 110.451 52.692 110.691 52.236C110.939 51.78 111.271 51.42 111.687 51.156C112.111 50.892 112.595 50.76 113.139 50.76C113.555 50.76 113.927 50.844 114.255 51.012C114.591 51.18 114.859 51.416 115.059 51.72C115.267 52.016 115.379 52.352 115.395 52.728V54.792C115.379 55.168 115.271 55.508 115.071 55.812C114.871 56.116 114.603 56.356 114.267 56.532C113.931 56.708 113.555 56.796 113.139 56.796ZM113.403 55.344C113.699 55.344 113.955 55.28 114.171 55.152C114.395 55.016 114.567 54.832 114.687 54.6C114.815 54.36 114.879 54.084 114.879 53.772C114.879 53.468 114.815 53.2 114.687 52.968C114.567 52.728 114.395 52.544 114.171 52.416C113.955 52.28 113.703 52.212 113.415 52.212C113.119 52.212 112.859 52.28 112.635 52.416C112.419 52.552 112.247 52.736 112.119 52.968C111.999 53.2 111.939 53.468 111.939 53.772C111.939 54.084 111.999 54.36 112.119 54.6C112.247 54.832 112.423 55.016 112.647 55.152C112.871 55.28 113.123 55.344 113.403 55.344ZM116.355 56.676H114.795V55.116L115.047 53.7L114.783 52.308V48H116.355V56.676ZM121.458 53.544V52.212H123.414C123.67 52.212 123.902 52.16 124.11 52.056C124.318 51.952 124.482 51.804 124.602 51.612C124.722 51.412 124.782 51.172 124.782 50.892C124.782 50.62 124.722 50.384 124.602 50.184C124.482 49.984 124.318 49.832 124.11 49.728C123.902 49.624 123.67 49.572 123.414 49.572H121.458V48.24H123.582C124.118 48.24 124.598 48.348 125.022 48.564C125.454 48.78 125.794 49.088 126.042 49.488C126.29 49.88 126.414 50.348 126.414 50.892C126.414 51.436 126.29 51.908 126.042 52.308C125.794 52.7 125.454 53.004 125.022 53.22C124.598 53.436 124.118 53.544 123.582 53.544H121.458ZM120.258 56.676V48.24H121.89V56.676H120.258ZM129.639 56.796C129.111 56.796 128.635 56.664 128.211 56.4C127.787 56.136 127.455 55.776 127.215 55.32C126.975 54.864 126.855 54.352 126.855 53.784C126.855 53.208 126.975 52.692 127.215 52.236C127.455 51.78 127.787 51.42 128.211 51.156C128.635 50.892 129.111 50.76 129.639 50.76C130.055 50.76 130.427 50.844 130.755 51.012C131.083 51.18 131.343 51.416 131.535 51.72C131.735 52.016 131.843 52.352 131.859 52.728V54.816C131.843 55.2 131.735 55.54 131.535 55.836C131.343 56.132 131.083 56.368 130.755 56.544C130.427 56.712 130.055 56.796 129.639 56.796ZM129.927 55.344C130.367 55.344 130.723 55.2 130.995 54.912C131.267 54.616 131.403 54.236 131.403 53.772C131.403 53.468 131.339 53.2 131.211 52.968C131.091 52.728 130.919 52.544 130.695 52.416C130.479 52.28 130.223 52.212 129.927 52.212C129.639 52.212 129.383 52.28 129.159 52.416C128.943 52.544 128.771 52.728 128.643 52.968C128.523 53.2 128.463 53.468 128.463 53.772C128.463 54.084 128.523 54.36 128.643 54.6C128.771 54.832 128.943 55.016 129.159 55.152C129.383 55.28 129.639 55.344 129.927 55.344ZM131.319 56.676V55.116L131.571 53.7L131.319 52.308V50.88H132.879V56.676H131.319ZM138.17 56.676V53.352C138.17 53.008 138.062 52.728 137.846 52.512C137.63 52.296 137.35 52.188 137.006 52.188C136.782 52.188 136.582 52.236 136.406 52.332C136.23 52.428 136.09 52.564 135.986 52.74C135.89 52.916 135.842 53.12 135.842 53.352L135.23 53.04C135.23 52.584 135.326 52.188 135.518 51.852C135.718 51.508 135.99 51.24 136.334 51.048C136.686 50.856 137.082 50.76 137.522 50.76C137.946 50.76 138.326 50.868 138.662 51.084C138.998 51.292 139.262 51.568 139.454 51.912C139.646 52.248 139.741 52.612 139.741 53.004V56.676H138.17ZM134.27 56.676V50.88H135.842V56.676H134.27ZM143.78 56.796C143.172 56.796 142.632 56.668 142.16 56.412C141.688 56.148 141.312 55.788 141.032 55.332C140.76 54.876 140.624 54.356 140.624 53.772C140.624 53.196 140.756 52.684 141.02 52.236C141.292 51.78 141.66 51.42 142.124 51.156C142.588 50.884 143.104 50.748 143.672 50.748C144.232 50.748 144.724 50.876 145.148 51.132C145.58 51.38 145.916 51.724 146.156 52.164C146.404 52.596 146.528 53.088 146.528 53.64C146.528 53.744 146.52 53.852 146.504 53.964C146.496 54.068 146.476 54.188 146.444 54.324L141.572 54.336V53.16L145.712 53.148L145.076 53.64C145.06 53.296 144.996 53.008 144.884 52.776C144.78 52.544 144.624 52.368 144.416 52.248C144.216 52.12 143.968 52.056 143.672 52.056C143.36 52.056 143.088 52.128 142.856 52.272C142.624 52.408 142.444 52.604 142.316 52.86C142.196 53.108 142.136 53.404 142.136 53.748C142.136 54.1 142.2 54.408 142.328 54.672C142.464 54.928 142.656 55.128 142.904 55.272C143.152 55.408 143.44 55.476 143.768 55.476C144.064 55.476 144.332 55.428 144.572 55.332C144.812 55.228 145.02 55.076 145.196 54.876L146.12 55.8C145.84 56.128 145.496 56.376 145.088 56.544C144.688 56.712 144.252 56.796 143.78 56.796ZM147.5 56.676V48H149.072V56.676H147.5Z" fill="#5F5F5F"/>
</svg>
