<svg width="205" height="48" viewBox="0 0 205 48" fill="none" xmlns="http://www.w3.org/2000/svg">
<path d="M62.098 39L52.68 15.098H57.678L64.954 34.444H63.016L70.36 15.098H75.29L65.77 39H62.098ZM83.3074 39V15.608H87.9654V39H83.3074ZM75.6914 19.212V15.098H95.5814V19.212H75.6914ZM102.174 29.004V25.4H107.716C108.85 25.4 109.722 25.1167 110.334 24.55C110.969 23.9607 111.286 23.156 111.286 22.136C111.286 21.2067 110.969 20.436 110.334 19.824C109.722 19.1893 108.85 18.872 107.716 18.872H102.174V15.098H108.124C109.666 15.098 111.014 15.404 112.17 16.016C113.349 16.6053 114.256 17.4213 114.89 18.464C115.548 19.5067 115.876 20.708 115.876 22.068C115.876 23.4733 115.548 24.6973 114.89 25.74C114.256 26.76 113.349 27.5647 112.17 28.154C110.992 28.7207 109.62 29.004 108.056 29.004H102.174ZM98.7742 39V15.098H103.398V39H98.7742ZM111.83 39L103.942 28.664L108.192 27.338L117.44 39H111.83ZM120.057 39V15.098H124.681V39H120.057ZM123.457 39V34.92H136.683V39H123.457ZM123.457 28.766V24.822H135.493V28.766H123.457ZM123.457 19.178V15.098H136.513V19.178H123.457ZM138.743 39L148.365 15.098H152.139L161.727 39H156.796L149.385 19.382H151.085L143.571 39H138.743ZM143.843 34.546V30.67H156.695V34.546H143.843ZM167.61 39V15.608H172.268V39H167.61ZM159.994 19.212V15.098H179.884V19.212H159.994ZM192.262 39.34C190.381 39.34 188.704 38.932 187.23 38.116C185.78 37.2773 184.635 36.1327 183.796 34.682C182.958 33.2313 182.538 31.588 182.538 29.752V15.098H187.162V29.888C187.162 30.9533 187.378 31.8713 187.808 32.642C188.262 33.4127 188.874 34.0133 189.644 34.444C190.438 34.852 191.31 35.056 192.262 35.056C193.237 35.056 194.098 34.852 194.846 34.444C195.594 34.0133 196.184 33.4127 196.614 32.642C197.068 31.8713 197.294 30.9647 197.294 29.922V15.098H201.952V29.786C201.952 31.622 201.533 33.2653 200.694 34.716C199.856 36.144 198.711 37.2773 197.26 38.116C195.832 38.932 194.166 39.34 192.262 39.34Z" fill="#000B6D"/>
<path d="M3.50302e-05 25.0353L18.4604 25.0353M18.4658 25.5396V43.9999M18.9647 0L18.9647 18.4604M18.4604 18.4657L0 18.4657M44.9978 25.0353L26.5374 25.0353M26.5321 25.5396V43.9999M26.0331 0L26.0331 18.4604M26.5374 18.4657L44.9978 18.4657" stroke="#000B6D" stroke-width="5"/>
</svg>
